<?xml version="1.0" standalone="no"?>
<!DOCTYPE svg PUBLIC "-//W3C//DTD SVG 20010904//EN"
 "http://www.w3.org/TR/2001/REC-SVG-20010904/DTD/svg10.dtd">
<svg version="1.0" xmlns="http://www.w3.org/2000/svg"
 width="1280.000000pt" height="1280.000000pt" viewBox="0 0 1280.000000 1280.000000"
 preserveAspectRatio="xMidYMid meet">

<g transform="translate(0.000000,1280.000000) scale(0.100000,-0.100000)"
fill="#000000" stroke="none">
<path d="M3655 11463 c-178 -5 -446 -42 -610 -84 -359 -92 -724 -273 -1000
-493 -94 -76 -284 -264 -358 -356 -143 -177 -277 -423 -336 -616 -135 -436
-146 -1099 -30 -1682 58 -294 125 -490 265 -780 338 -703 765 -1190 1569
-1793 77 -58 309 -226 515 -374 572 -410 829 -605 1129 -859 486 -410 911
-847 1305 -1341 151 -189 150 -188 143 -155 -6 27 -70 465 -87 590 -5 41 -16
127 -24 190 -8 63 -27 219 -41 345 -47 430 -59 558 -80 830 -8 110 -17 229
-20 265 -28 349 -56 1063 -44 1145 39 278 291 476 603 475 102 -1 147 -10 326
-70 114 -38 133 -41 210 -38 64 2 97 9 132 26 75 37 143 105 180 180 64 130
38 275 -70 385 -57 59 -95 83 -158 102 -97 29 -178 17 -426 -65 -170 -57 -245
-72 -343 -71 -184 1 -314 80 -393 239 l-37 76 1 131 c0 71 6 184 13 250 7 66
19 188 27 270 47 464 140 1009 239 1404 30 117 44 193 40 210 -10 42 -130 256
-219 391 -308 467 -727 829 -1207 1041 -201 89 -411 151 -669 198 -134 24
-365 39 -545 34z"/>
<path d="M8825 11454 c-455 -44 -832 -165 -1203 -387 -430 -257 -825 -692
-1070 -1175 -66 -131 -85 -183 -135 -392 -88 -360 -163 -796 -218 -1270 -19
-167 -49 -526 -49 -587 0 -115 65 -206 171 -237 94 -28 140 -21 394 60 334
107 465 107 642 -2 213 -132 313 -401 231 -623 -56 -150 -173 -267 -333 -332
-53 -21 -75 -24 -180 -23 -116 0 -125 2 -275 51 -188 62 -230 69 -317 53 -149
-27 -279 -117 -331 -228 -26 -56 -27 -59 -24 -262 3 -321 47 -1057 91 -1520
31 -321 59 -580 100 -905 30 -236 38 -294 71 -507 5 -35 16 -112 25 -173 28
-190 35 -219 49 -204 7 8 57 73 111 144 219 289 470 578 740 854 514 525 904
847 1805 1491 731 522 945 694 1265 1015 372 371 602 690 821 1140 207 426
295 766 339 1305 30 368 6 762 -66 1057 -134 559 -574 1072 -1177 1373 -263
131 -546 220 -847 266 -95 14 -537 27 -630 18z"/>
</g>
</svg>
